# xmcd CD database file
#
# Track frame offsets:
#	150
#	14467
#	33279
#	49586
#	67900
#	81325
#	97259
#	115414
#	133530
#	152784
#	169559
#	187947
#
# Disc length: 2779 seconds
#
# Revision: 2
# Processed by: cddbd v1.5.2PL0 Copyright (c) Steve Scherf et al.
# Submitted via: CDex 1.70beta2
#
DISCID=960ad90c
DTITLE=CReal - Χίλια Χρόνια - 2004
DYEAR=2004
DGENRE=Ballad
TTITLE0=Καλοκαίρι Στην Καρδιά
TTITLE1=Θέλω Να Ξέρεις
TTITLE2=Μην Ανησυχείς
TTITLE3=Χίλια Χρόνια
TTITLE4=Στάσου
TTITLE5=Κάθε Μικρό Σου Ψέμα
TTITLE6=Στου Κόσμου Αυτή Την Άκρη
TTITLE7=Μήπως Γι'Αυτό
TTITLE8=Έτσι Κάνουν Οι Καρδιές (Συμμετέχει Ο Γιάννης Βαρδής)
TTITLE9=Αν Δεν Σε Ξαναδώ
TTITLE10=Fire In The Sky
TTITLE11=Θέλω Να Ξέρεις (Club Mix)
EXTD=YEAR: 2004
EXTT0=
EXTT1=
EXTT2=
EXTT3=
EXTT4=
EXTT5=
EXTT6=
EXTT7=
EXTT8=
EXTT9=
EXTT10=
EXTT11=
PLAYORDER=
